<svg width="161" height="160" viewBox="0 0 161 160" fill="none" xmlns="http://www.w3.org/2000/svg">
<path d="M80.4887 156.571C40.7468 148.617 11.9287 111.293 11.9287 67.7975V28.2104C11.9287 26.6105 12.4543 25.0562 13.4142 23.7763C14.374 22.4963 15.7452 21.5592 17.2992 21.1249L76.2837 4.02844C79.0261 3.22847 81.9513 3.22847 84.7166 4.02844L143.701 21.1249C145.255 21.5821 146.603 22.4963 147.586 23.7763C148.546 25.0562 149.072 26.6105 149.072 28.2104V67.7975C149.049 111.316 120.231 148.663 80.4887 156.571Z" fill="#69B42E"/>
<path d="M80.374 156.547C40.6915 148.544 11.9287 111.251 11.9287 67.7971V28.2102C11.9288 26.6104 12.4544 25.0565 13.4141 23.7766C14.3738 22.4968 15.745 21.5596 17.2988 21.1252L76.2832 4.02856C77.6166 3.63962 78.9936 3.44067 80.374 3.42993V156.547Z" fill="white" fill-opacity="0.15"/>
<path fill-rule="evenodd" clip-rule="evenodd" d="M62.2144 44.5033C62.2144 41.9786 64.2611 39.9319 66.7858 39.9319H94.2144C96.7391 39.9319 98.7858 41.9786 98.7858 44.5033V103.932C98.7858 106.457 96.7391 108.503 94.2144 108.503H66.7858C64.2611 108.503 62.2144 106.457 62.2144 103.932V44.5033ZM82.5572 104.618C82.5572 105.754 81.6362 106.675 80.5001 106.675C79.3639 106.675 78.4429 105.754 78.4429 104.618C78.4429 103.482 79.3639 102.561 80.5001 102.561C81.6362 102.561 82.5572 103.482 82.5572 104.618ZM67.2173 42.2176H71.5702V43.1319C71.5702 43.8893 72.1842 44.5033 72.9416 44.5033H87.113C87.8704 44.5033 88.4844 43.8893 88.4844 43.1319V42.2176H93.7828C95.2835 42.2176 96.5001 43.4341 96.5001 44.9348V98.9289C96.5001 100.43 95.2835 101.646 93.7828 101.646H67.2173C65.7166 101.646 64.5001 100.43 64.5001 98.9289V44.9348C64.5001 43.4341 65.7166 42.2176 67.2173 42.2176Z" fill="white"/>
<path fill-rule="evenodd" clip-rule="evenodd" d="M71.5702 42.2176H67.2173C65.7166 42.2176 64.5001 43.4341 64.5001 44.9348V98.9289C64.5001 100.43 65.7166 101.646 67.2173 101.646H93.7828C95.2835 101.646 96.5001 100.43 96.5001 98.9289V44.9348C96.5001 43.4341 95.2835 42.2176 93.7828 42.2176H88.4844V43.1319C88.4844 43.8893 87.8704 44.5033 87.113 44.5033H72.9416C72.1842 44.5033 71.5702 43.8893 71.5702 43.1319V42.2176Z" fill="white" fill-opacity="0.35"/>
</svg>
